<?xml version="1.0" encoding="utf-8"?>
<!-- Generator: Adobe Illustrator 24.0.0, SVG Export Plug-In . SVG Version: 6.00 Build 0)  -->
<svg version="1.1" id="Layer_1" xmlns="http://www.w3.org/2000/svg" xmlns:xlink="http://www.w3.org/1999/xlink" x="0px" y="0px"
	 viewBox="0 0 400 400" style="enable-background:new 0 0 400 400;" xml:space="preserve">
<style type="text/css">
	.st0{fill:#292A2D;}
	.st1{fill:#FFFFFF;}
	.st2{fill:#F0AD1C;}
	.st3{fill:#FF992E;}
	.st4{fill:url(#SVGID_1_);}
	.st5{opacity:0.5;fill:url(#SVGID_2_);}
	.st6{fill:#F9BB87;}
	.st7{opacity:0.5;fill:#FFFFFF;}
	.st8{fill:none;stroke:#DDDDDD;stroke-miterlimit:10;}
	.st9{fill:#E30006;}
	.st10{opacity:0.5;fill:url(#SVGID_3_);}
	.st11{fill:none;}
	.st12{fill:url(#SVGID_4_);}
	.st13{fill:#757F7F;}
	.st14{opacity:0.5;fill:url(#SVGID_5_);}
	.st15{opacity:0.5;fill:url(#SVGID_6_);}
	.st16{opacity:0.5;fill:url(#SVGID_7_);}
	.st17{fill:#101111;}
	.st18{fill:#D1E2E2;}
	.st19{opacity:0.5;fill:url(#SVGID_8_);}
	.st20{fill:#C3D1D1;}
	.st21{fill:url(#SVGID_9_);}
	.st22{fill:url(#SVGID_10_);}
	.st23{fill:url(#SVGID_11_);}
	.st24{opacity:0.5;fill:url(#SVGID_12_);}
	.st25{fill:#00519B;}
	.st26{opacity:0.5;fill:url(#SVGID_13_);}
	.st27{opacity:0.5;fill:url(#SVGID_14_);}
	.st28{opacity:0.5;fill:url(#SVGID_15_);}
	.st29{fill:url(#SVGID_16_);}
	.st30{fill:url(#SVGID_17_);}
	.st31{fill:url(#SVGID_18_);}
	.st32{opacity:0.5;fill:url(#SVGID_19_);}
	.st33{opacity:0.5;fill:url(#SVGID_20_);}
	.st34{opacity:0.5;fill:url(#SVGID_21_);}
	.st35{fill:url(#SVGID_22_);}
	.st36{opacity:0.5;fill:url(#SVGID_23_);}
	.st37{fill:url(#SVGID_24_);}
	.st38{fill:#FF812E;}
	.st39{opacity:0.5;fill:url(#SVGID_25_);}
	.st40{fill:url(#SVGID_26_);}
	.st41{opacity:0.5;fill:url(#SVGID_27_);}
	.st42{opacity:0.5;fill:url(#SVGID_28_);}
	.st43{opacity:0.5;fill:url(#SVGID_29_);}
	.st44{opacity:0.5;fill:url(#SVGID_30_);}
	.st45{fill:url(#SVGID_31_);}
	.st46{fill:#B3B3B3;}
</style>
<g>
	<path class="st0" d="M173.38,99.18c0,5.09-2.88,5.99-6.44,5.99h-1.77c-3.56,0-6.44-0.9-6.44-5.99V79.01c0-5.09,2.88-9.21,6.44-9.21
		h1.77c3.56,0,6.44,4.12,6.44,9.21V99.18z"/>
	<path class="st0" d="M243.95,99.18c0,5.09-2.88,5.99-6.44,5.99h-1.77c-3.56,0-6.44-0.9-6.44-5.99V79.01c0-5.09,2.88-9.21,6.44-9.21
		h1.77c3.56,0,6.44,4.12,6.44,9.21V99.18z"/>
	<rect x="162.22" y="72.1" class="st0" width="78.86" height="26.03"/>
	<path class="st1" d="M170.29,91.69c0,1.72-1.39,3.11-3.11,3.11c-1.72,0-3.11-1.39-3.11-3.11c0-1.72,1.39-3.11,3.11-3.11
		C168.89,88.58,170.29,89.98,170.29,91.69z"/>
	<path class="st2" d="M170.52,77.8c0,1.21-0.98,2.19-2.19,2.19c-1.21,0-2.19-0.98-2.19-2.19c0-1.21,0.98-2.19,2.19-2.19
		C169.54,75.61,170.52,76.59,170.52,77.8z"/>
	<path class="st1" d="M169.32,77.8c0,0.55-0.44,0.99-0.99,0.99c-0.55,0-0.99-0.44-0.99-0.99c0-0.55,0.44-0.99,0.99-0.99
		C168.88,76.8,169.32,77.25,169.32,77.8z"/>
	<path class="st2" d="M236.63,77.8c0,1.21-0.98,2.19-2.19,2.19c-1.21,0-2.19-0.98-2.19-2.19c0-1.21,0.98-2.19,2.19-2.19
		C235.65,75.61,236.63,76.59,236.63,77.8z"/>
	<path class="st1" d="M238.47,91.54c0,1.72-1.39,3.11-3.11,3.11c-1.72,0-3.11-1.39-3.11-3.11c0-1.72,1.39-3.11,3.11-3.11
		C237.08,88.43,238.47,89.82,238.47,91.54z"/>
	<path class="st1" d="M235.43,77.8c0,0.55-0.44,0.99-0.99,0.99c-0.55,0-0.99-0.44-0.99-0.99c0-0.55,0.44-0.99,0.99-0.99
		C234.99,76.8,235.43,77.25,235.43,77.8z"/>
	<path class="st3" d="M247.98,61.75c0-3.67-3.84-3.17-3.84-3.17c-0.29,0-0.98,0-2.46,0c-3.67,0-4.29,3.14-4.3,3.16
		c-1-2.88-5.07-14.1-8.68-16.37c-4.15-2.61-27.34-2.76-27.34-2.76s-23.19,0.15-27.34,2.76c-3.61,2.27-7.68,13.5-8.68,16.37h-2.07
		c0,0-0.61-3.17-4.3-3.17c-1.48,0-2.16,0-2.46,0c0,0-3.84-0.5-3.84,3.17c0,0-0.84,3.44,2.07,3.44c1.45,0,4.43,0,7.06,0
		c-1.9,1.93-3.6,4.61-3.6,8.91c0,7.68,0,17.2,0,17.2s-1.61,10.29,13.67,10.29c15.82,0,29.49,0,29.49,0s13.67,0,29.49,0
		c15.28,0,13.67-10.29,13.67-10.29s0-9.52,0-17.2c0-4.29-1.7-6.97-3.6-8.91c1.99,0,3.91,0,4.99,0
		C248.35,65.19,247.98,61.75,247.98,61.75z M238.44,74.63c0,0,0.69,5.99-4.61,6.74c-5.3,0.75-10.48,1.09-10.48,1.09
		s0.46-5.07,4.09-6.33C231.07,74.86,238.44,74.63,238.44,74.63z M171.58,58.24c0,0,0,0,1.94-5.18c1.94-5.18,4.56-5.53,9.24-6.1
		c4.68-0.58,18.74-0.81,18.74-0.81s14.06,0.23,18.74,0.81c4.68,0.58,7.3,0.92,9.24,6.1c1.94,5.18,1.94,5.18,1.94,5.18
		s1.71,4.72-3.88,4.72c-5.59,0-26.04,0-26.04,0s-20.45,0-26.04,0C169.86,62.96,171.58,58.24,171.58,58.24z M164.3,74.63
		c0,0,7.37,0.23,11,1.5c3.63,1.27,4.09,6.33,4.09,6.33s-5.18-0.35-10.48-1.09C163.61,80.62,164.3,74.63,164.3,74.63z M178.76,96.78
		c-2.99,0-10.04,0-10.04,0s-5.93,0.71-5.93-6.07h19.58C182.37,90.72,181.75,96.78,178.76,96.78z M215.12,92.37
		c0,0-0.54,2.84-4.84,2.84c-4.3,0-8.91,0-8.91,0s-4.61,0-8.91,0s-4.84-2.84-4.84-2.84s-0.19-0.5-0.47-1.31h28.43
		C215.31,91.87,215.12,92.37,215.12,92.37z M217.46,84.92h-32.17c-0.82-3.3-1.26-6.62-0.04-7.45c2.61-1.77,16.13-1.61,16.13-1.61
		s13.51-0.15,16.13,1.61C218.72,78.3,218.27,81.62,217.46,84.92z M236.35,96.78c-2.99,0-10.04,0-10.04,0s-5.93,0.71-5.93-6.07h19.58
		C239.96,90.72,239.34,96.78,236.35,96.78z"/>
	<linearGradient id="SVGID_1_" gradientUnits="userSpaceOnUse" x1="201.3687" y1="101.5837" x2="201.3687" y2="91.294">
		<stop  offset="0" style="stop-color:#FFFFFF"/>
		<stop  offset="0.1102" style="stop-color:#DCE7EF"/>
		<stop  offset="0.3557" style="stop-color:#94B6CE"/>
		<stop  offset="0.5763" style="stop-color:#5B8EB4"/>
		<stop  offset="0.7639" style="stop-color:#3272A1"/>
		<stop  offset="0.9112" style="stop-color:#186095"/>
		<stop  offset="1" style="stop-color:#0F5A91"/>
	</linearGradient>
	<path class="st4" d="M244.52,91.29c0,0-3.19,7.89-15.16,7.89c-11.11,0-25.79,0-27.86,0c0,0-0.09,0-0.26,0c-2.07,0-16.76,0-27.86,0
		c-11.97,0-15.16-7.89-15.16-7.89s-1.61,10.29,13.67,10.29c14.94,0,27.95,0,29.35,0c0.08,0,0.12,0,0.13,0c0,0,0.01,0,0.01,0
		s0.05,0,0.13,0c1.4,0,14.42,0,29.35,0C246.13,101.58,244.52,91.29,244.52,91.29z"/>
	<linearGradient id="SVGID_2_" gradientUnits="userSpaceOnUse" x1="201.5753" y1="76.2722" x2="201.5753" y2="59.859">
		<stop  offset="0" style="stop-color:#0D97D3"/>
		<stop  offset="1" style="stop-color:#000000"/>
	</linearGradient>
	<path class="st5" d="M235.14,63.83c-0.49-1.63-0.96-3.29-1.03-3.97c-0.03,1.27-0.82,2.88-4.62,2.88c-5.38,0-23.02,0-27.91,0
		c-4.89,0-22.53,0-27.91,0c-3.8,0-4.59-1.61-4.62-2.88c-0.07,0.67-0.54,2.34-1.03,3.97c-0.5,1.64,0.19,3.39,1.69,4.3
		c4.84,2.95,14.12,8.57,14.94,8.11c2.44-1.37,13.38-1.5,16.94-1.5c3.56,0,14.5,0.13,16.94,1.5c0.81,0.46,10.1-5.16,14.94-8.11
		C234.95,67.22,235.63,65.46,235.14,63.83z"/>
	<g>
		<path class="st6" d="M201.5,62.92c0,0,22.04,0,28.07,0c6.02,0,4.18-5.09,4.18-5.09s0,0-2.09-5.59c-2.09-5.59-4.92-5.96-9.96-6.58
			c-5.04-0.62-20.2-0.87-20.2-0.87s-15.15,0.25-20.2,0.87c-5.04,0.62-7.87,0.99-9.96,6.58c-2.09,5.59-2.09,5.59-2.09,5.59
			s-1.84,5.09,4.18,5.09C179.46,62.92,201.5,62.92,201.5,62.92z"/>
		<g>
			<path class="st7" d="M197.21,45.96c-3.87,0.08-12.36,0.31-15.72,0.72c-4.42,0.54-6.9,0.87-8.73,5.77c-1.83,4.9-1.83,4.9-1.83,4.9
				s-1.62,4.46,3.66,4.46c5.28,0,24.61,0,24.61,0s2.87,0,6.55,0L197.21,45.96z"/>
			<path class="st7" d="M203.67,45.94c-0.95,0.02-2.19,0.05-3.55,0.09l8.49,15.76c1.03,0,2.26,0,3.6,0L203.67,45.94z"/>
		</g>
	</g>
</g>
<rect x="13.31" y="157.1" class="st8" width="105.19" height="104.1"/>
<rect x="147.31" y="288.1" class="st8" width="105.19" height="104.1"/>
<rect x="147.31" y="21.1" class="st8" width="105.19" height="104.1"/>
<rect x="282.31" y="157.1" class="st8" width="105.19" height="104.1"/>
<g>
	<polygon class="st0" points="168.12,367.58 232.3,367.58 235.63,360.4 164.8,360.4 	"/>
	<g>
		<path class="st6" d="M233.91,324.73c0,4.41-3.57,7.98-7.98,7.98h-50.16c-4.41,0-7.98-3.57-7.98-7.98l0,0
			c0-4.41,3.57-7.98,7.98-7.98h50.16C230.34,316.74,233.91,320.32,233.91,324.73L233.91,324.73z"/>
		<g>
			<path class="st7" d="M204.96,320.14c3.64,0.07,11.63,0.24,14.79,0.57c4.16,0.43,6.49,0.68,8.22,4.53
				c1.72,3.84,1.72,3.84,1.72,3.84s1.52,3.5-3.45,3.5c-4.97,0-23.15,0-23.15,0s-2.7,0-6.16,0L204.96,320.14z"/>
			<path class="st7" d="M198.88,320.13c0.9,0.02,2.06,0.04,3.34,0.07l-7.98,12.37c-0.97,0-2.12,0-3.39,0L198.88,320.13z"/>
		</g>
	</g>
	<path class="st0" d="M170.55,369.52c0,5.09-2.88,5.99-6.44,5.99h-1.77c-3.56,0-6.44-0.9-6.44-5.99v-20.18
		c0-5.09,2.88-9.22,6.44-9.22h1.77c3.56,0,6.44,4.13,6.44,9.22V369.52z"/>
	<path class="st0" d="M244.54,369.52c0,5.09-2.88,5.99-6.44,5.99h-1.77c-3.56,0-6.44-0.9-6.44-5.99v-20.18
		c0-5.09,2.88-9.22,6.44-9.22h1.77c3.56,0,6.44,4.13,6.44,9.22V369.52z"/>
	<polygon class="st0" points="160.23,346.3 240.41,346.3 237.49,333.71 162.69,333.71 	"/>
	<path class="st9" d="M166.61,339.78c0-0.76,0.75-1.38,1.67-1.38h17.16c0.92,0,1.67,0.62,1.67,1.38l0,0c0,0.76-0.75,1.38-1.67,1.38
		h-17.16C167.36,341.16,166.61,340.54,166.61,339.78L166.61,339.78z"/>
	<path class="st9" d="M212.92,339.78c0-0.76,0.75-1.38,1.67-1.38h17.16c0.92,0,1.67,0.62,1.67,1.38l0,0c0,0.76-0.75,1.38-1.67,1.38
		h-17.16C213.66,341.16,212.92,340.54,212.92,339.78L212.92,339.78z"/>
	<path class="st3" d="M248,332.66c0-4.09-5.7-3.74-8.24-3.74c-2.53,0-2.25,3.11-2.25,3.11h-0.03c-3.46-6.43-4.06-12.99-8.67-15.9
		c-5.6-3.53-28.6-3.4-28.61-3.4c-0.01,0-23.01-0.13-28.61,3.4c-4.61,2.91-5.21,9.47-8.67,15.9h-1.44c0,0,0.29-3.11-2.25-3.11
		c-2.53,0-8.24-0.35-8.24,3.74c0,0-0.12,2.82,3.05,2.82c1.98,0,4.83,0,6.67,0c-0.15,0.21-0.31,0.41-0.48,0.61
		c-6.06,7.53-4.2,12.29-4.2,12.29s-0.78,19.2,9.48,19.2c0.78,0,1.65,0,2.58,0v-2.77c0-1.74,1.41-3.15,3.15-3.15
		c1.74,0,3.15,1.41,3.15,3.15v2.77c11.33,0,25.78,0,25.79,0h0c0.01,0,14.46,0,25.79,0v-2.77c0-1.74,1.41-3.15,3.15-3.15
		c1.74,0,3.15,1.41,3.15,3.15v2.77c0.93,0,1.8,0,2.58,0c10.26,0,9.48-19.2,9.48-19.2s1.87-4.76-4.2-12.29
		c-0.16-0.2-0.32-0.41-0.48-0.61c1.7,0,3.73,0,5.26,0C248.11,335.48,248,332.66,248,332.66z M175.71,343.47h-13.67
		c0,0-0.23-5.3,3.07-6.37c3.3-1.08,14.51-0.54,14.51-0.54s2.61-0.38,3.76,1.61L175.71,343.47z M200.21,330.49
		c-5.64,0-18.19-0.23-22.54-0.32c-4.35-0.09-6.09,0.26-5.83-4.18c0.26-4.44,2.09-5.74,7.57-6.53c5.48-0.78,20.8-0.87,20.8-0.87
		s15.32,0.09,20.8,0.87c5.48,0.78,7.31,2.09,7.57,6.53c0.26,4.44-1.48,4.09-5.83,4.18C218.4,330.26,205.85,330.49,200.21,330.49z
		 M238.37,343.47H224.7l-7.68-5.3c1.15-2,3.76-1.61,3.76-1.61s11.21-0.54,14.51,0.54C238.6,338.17,238.37,343.47,238.37,343.47z"/>
	<linearGradient id="SVGID_3_" gradientUnits="userSpaceOnUse" x1="200.2067" y1="315.1947" x2="200.2067" y2="312.7275">
		<stop  offset="0" style="stop-color:#0D97D3"/>
		<stop  offset="1" style="stop-color:#000000"/>
	</linearGradient>
	<path class="st10" d="M226.71,315.19c-7.77-2.57-26.49-2.47-26.5-2.47c-0.01,0-18.73-0.11-26.5,2.47"/>
	<path class="st11" d="M179.63,336.56c0,0-11.21-0.54-14.51,0.54c-3.3,1.08-3.07,6.37-3.07,6.37h13.67l7.68-5.3
		C182.24,336.17,179.63,336.56,179.63,336.56z"/>
	<path class="st11" d="M235.3,337.09c-3.3-1.08-14.51-0.54-14.51-0.54s-2.61-0.38-3.76,1.61l7.68,5.3h13.67
		C238.37,343.47,238.6,338.17,235.3,337.09z"/>
	<linearGradient id="SVGID_4_" gradientUnits="userSpaceOnUse" x1="199.9253" y1="367.5826" x2="199.9253" y2="357.8244">
		<stop  offset="0" style="stop-color:#FFFFFF"/>
		<stop  offset="0.1102" style="stop-color:#DCE7EF"/>
		<stop  offset="0.3557" style="stop-color:#94B6CE"/>
		<stop  offset="0.5763" style="stop-color:#5B8EB4"/>
		<stop  offset="0.7639" style="stop-color:#3272A1"/>
		<stop  offset="0.9112" style="stop-color:#186095"/>
		<stop  offset="1" style="stop-color:#0F5A91"/>
	</linearGradient>
	<path class="st12" d="M200.21,367.58L200.21,367.58c0.02,0,14.46,0,25.79,0v-2.77c0-1.74,1.41-3.15,3.15-3.15
		c1.74,0,3.15,1.41,3.15,3.15v2.77c0.93,0,1.8,0,2.58,0c3.45,0,5.66-2.18,7.06-5.07l-0.85-1.31c0,0-10.28-3.39-41.59-3.39
		c-31.31,0-41.59,3.39-41.59,3.39l0,0c1.35,3.51,3.67,6.37,7.63,6.37c0.78,0,1.65,0,2.58,0v-2.77c0-1.74,1.41-3.15,3.15-3.15
		c1.74,0,3.15,1.41,3.15,3.15v2.77C185.75,367.58,200.19,367.58,200.21,367.58z"/>
	<circle class="st13" cx="171.27" cy="364.78" r="2.07"/>
	<circle class="st13" cx="229.14" cy="364.78" r="2.07"/>
	<linearGradient id="SVGID_5_" gradientUnits="userSpaceOnUse" x1="164.8014" y1="344.9411" x2="164.8014" y2="315.1949">
		<stop  offset="0" style="stop-color:#0D97D3"/>
		<stop  offset="1" style="stop-color:#000000"/>
	</linearGradient>
	<path class="st14" d="M164.26,337.51c1.82-7.04,4.38-18.29,9.45-22.32c-0.84,0.28-1.56,0.59-2.11,0.93
		c-4.57,2.89-5.21,9.35-8.59,15.73l0,0.01l-0.02,0.03c-0.02,0.04-0.04,0.09-0.07,0.13h-0.02l-2.18,3.46
		c-0.15,0.21-0.31,0.41-0.48,0.61c-2.98,3.69-4.04,6.72-4.35,8.85c0,0,3.96-0.47,6.14-1.47
		C162.04,343.47,161.85,339.14,164.26,337.51z"/>
	<linearGradient id="SVGID_6_" gradientUnits="userSpaceOnUse" x1="235.631" y1="344.9627" x2="235.631" y2="315.2165">
		<stop  offset="0" style="stop-color:#0D97D3"/>
		<stop  offset="1" style="stop-color:#000000"/>
	</linearGradient>
	<path class="st15" d="M236.17,337.53c-1.82-7.04-4.38-18.29-9.45-22.32c0.84,0.28,1.56,0.59,2.1,0.93
		c4.57,2.89,5.21,9.35,8.59,15.73l0,0.01l0.02,0.03c0.02,0.04,0.04,0.09,0.07,0.13h0.02l2.18,3.46c0.15,0.21,0.31,0.41,0.48,0.61
		c2.98,3.69,4.04,6.72,4.35,8.85c0,0-3.96-0.47-6.14-1.47C238.39,343.49,238.58,339.16,236.17,337.53z"/>
	<linearGradient id="SVGID_7_" gradientUnits="userSpaceOnUse" x1="200.2069" y1="348.7682" x2="200.2069" y2="338.1903">
		<stop  offset="0" style="stop-color:#0D97D3"/>
		<stop  offset="1" style="stop-color:#000000"/>
	</linearGradient>
	<path class="st16" d="M217.05,338.19L216.1,340c-0.69,1.31-2.04,2.12-3.52,2.12h-24.76c-1.48,0-2.83-0.82-3.52-2.12l-0.95-1.81
		l-7.63,5.27c0,0,0,0.01,0,0.01s0.54,5.3,6.68,5.3c5.29,0,14.88,0,17.46,0v0c0,0,11.98,0,18.12,0c6.14,0,6.68-5.3,6.68-5.3
		s0-0.01,0-0.01L217.05,338.19z"/>
</g>
<g>
	<path class="st17" d="M26.72,223.6l14.68-0.27l24.17-1.97l19.82,1.15l15.42-0.29c0,0,3.37-7.96,1.4-9.14
		c-1.96-1.18-11.33-2.68-14.95-1.86c-3.62,0.82-43.62-0.41-50.6,0c-6.98,0.41-12.68,3.74-13.35,6.07
		C22.63,219.63,26.72,223.6,26.72,223.6z"/>
	<g>
		<path class="st0" d="M92.94,213.6c-3.75,0-6.79,3.04-6.79,6.79c0,3.75,3.04,6.79,6.79,6.79c3.75,0,6.79-3.04,6.79-6.79
			C99.73,216.64,96.69,213.6,92.94,213.6z"/>
		<ellipse transform="matrix(0.9997 -0.0249 0.0249 0.9997 -5.4872 0.9168)" class="st0" cx="34" cy="220.39" rx="6.79" ry="6.79"/>
		<path class="st17" d="M34,215.02c-2.97,0-5.37,2.41-5.37,5.37c0,2.97,2.4,5.37,5.37,5.37c2.97,0,5.37-2.4,5.37-5.37
			C39.37,217.43,36.97,215.02,34,215.02z"/>
		<path class="st0" d="M24.99,211.65c0,0-0.56,8.48-2.28,10.09c-1.72,1.61-6.01-0.37-6.01-0.37s-0.31-7.38,3.02-9.25
			C23.04,210.23,24.99,211.65,24.99,211.65z"/>
		<path class="st17" d="M92.94,215.02c-2.97,0-5.37,2.41-5.37,5.37c0,2.97,2.4,5.37,5.37,5.37c2.97,0,5.37-2.4,5.37-5.37
			C98.31,217.43,95.91,215.02,92.94,215.02z"/>
		<path class="st2" d="M25.75,211.67c0,0-3.53,0.32-4.33,1.15c-0.8,0.83-0.8,1.89-0.8,1.89l2.96,0.12
			C23.58,214.82,26.35,213.23,25.75,211.67z"/>
		<path class="st6" d="M47.35,212.75h38.79l11.17-9.1c0,0-5.93-3.95-12.46-4.08c-6.53-0.13-22.18,0-22.18,0s-11.04,2.1-17.2,7.11
			c-6.15,5.02-4.07,6.06-4.07,6.06H47.35z"/>
		<g>
			<polygon class="st7" points="58.24,212.43 56.55,212.43 63.33,199.22 65.02,199.22 			"/>
			<polygon class="st7" points="55.28,212.43 54.43,212.43 61.42,198.98 62.26,198.98 			"/>
			<polygon class="st7" points="73.46,212.43 71.77,212.43 78.55,199.31 80.23,199.31 			"/>
			<polygon class="st7" points="98.31,212.43 75.07,212.43 82.17,198.7 92.34,200.6 			"/>
			<polygon class="st7" points="70.49,212.43 69.65,212.43 76.73,198.7 77.57,198.7 			"/>
		</g>
		<g>
			<path class="st18" d="M33.41,215.65v3c-0.29,0.1-0.54,0.26-0.74,0.48l-2.75-1.22C30.66,216.69,31.93,215.83,33.41,215.65z"/>
			<path class="st18" d="M32.35,221.21l-2.12,2.12c-0.63-0.81-1.01-1.83-1.01-2.94c0-0.49,0.07-0.96,0.21-1.4l2.74,1.21
				c-0.01,0.06-0.01,0.13-0.01,0.19C32.16,220.69,32.23,220.97,32.35,221.21z"/>
			<path class="st18" d="M38.79,220.39c0,1.1-0.38,2.12-1,2.93l-2.12-2.12c0.12-0.24,0.19-0.52,0.19-0.81c0-0.06,0-0.13-0.01-0.19
				l2.74-1.21C38.71,219.43,38.79,219.9,38.79,220.39z"/>
			<path class="st18" d="M38.09,217.91l-2.75,1.22c-0.2-0.21-0.46-0.38-0.74-0.48v-3C36.08,215.83,37.35,216.69,38.09,217.91z"/>
			<path class="st18" d="M36.94,224.16c-0.81,0.63-1.83,1.01-2.94,1.01c-1.11,0-2.12-0.37-2.93-1.01l2.12-2.12
				c0.24,0.12,0.52,0.19,0.81,0.19c0.29,0,0.57-0.07,0.82-0.19L36.94,224.16z"/>
		</g>
		<path class="st18" d="M92.34,215.65v3c-0.29,0.1-0.54,0.26-0.74,0.48l-2.75-1.22C89.59,216.69,90.86,215.83,92.34,215.65z"/>
		<path class="st18" d="M91.29,221.21l-2.12,2.12c-0.63-0.81-1.01-1.83-1.01-2.94c0-0.49,0.07-0.96,0.21-1.4l2.74,1.21
			c-0.01,0.06-0.01,0.13-0.01,0.19C91.09,220.69,91.16,220.97,91.29,221.21z"/>
		<path class="st18" d="M97.02,217.91l-2.75,1.22c-0.2-0.21-0.46-0.38-0.74-0.48v-3C95.01,215.83,96.28,216.69,97.02,217.91z"/>
		<path class="st18" d="M95.88,224.16c-0.81,0.63-1.83,1.01-2.94,1.01c-1.11,0-2.12-0.37-2.93-1.01l2.12-2.12
			c0.24,0.12,0.52,0.19,0.81,0.19c0.29,0,0.57-0.07,0.82-0.19L95.88,224.16z"/>
		<path class="st18" d="M97.72,220.39c0,1.1-0.38,2.12-1,2.93l-2.12-2.12c0.12-0.24,0.19-0.52,0.19-0.81c0-0.06,0-0.13-0.01-0.19
			l2.74-1.21C97.64,219.43,97.72,219.9,97.72,220.39z"/>
		<path class="st1" d="M21.53,219.4c0,0.6-0.48,1.08-1.08,1.08c-0.6,0-1.08-0.48-1.08-1.08c0-0.6,0.48-1.08,1.08-1.08
			C21.05,218.32,21.53,218.8,21.53,219.4z"/>
		<path class="st3" d="M115,215.32c0-1.94-1.34-2.01-1.34-2.01c-1.4,0-1.47-2.6-1.47-2.6c0.74-1,0.33-2.55,0.33-2.55v-2.21
			c0,0-6.15-1-16.32-4.82c-10.17-3.81-26.35-3.63-32.84-2.94c-6.49,0.69-14.25,5.75-17.59,7.02c-3.34,1.27-4.68,1.4-4.68,1.4
			s-18.66,2.61-21.27,4.15c-1.29,0.76-2.62,2.47-2.79,4.49c-0.12,0.4-0.23,0.81-0.33,1.22c-0.63,0.17-0.56,3.21-0.56,4.32
			c0,2.74,4.01,2.81,4.01,2.81h5.95l0.61-0.01c-0.43-0.98-0.68-2.07-0.68-3.21c0-4.4,3.56-7.96,7.96-7.96c4.4,0,7.96,3.56,7.96,7.96
			c0,1.04-0.2,2.03-0.56,2.94l43.99-0.82c-0.19-0.67-0.29-1.38-0.29-2.12c0-4.4,3.56-7.96,7.96-7.96c4.4,0,7.96,3.56,7.96,7.96
			c0,0.63-0.08,1.24-0.21,1.83l0.68-0.01c0,0,4.75-0.4,9.16-1.4C115.07,219.8,115,217.26,115,215.32z M21.88,220.5
			c-0.25,0.7-1.13,0.88-1.13,0.88s-2.26,0.13-2.81,0c-0.55-0.13-0.75-0.45-0.9-0.99c-0.15-0.54-0.15-1.62-0.15-1.62l5.44-0.5
			C22.33,218.27,22.13,219.8,21.88,220.5z M17.92,215.22c0,0,0.47-1.94,1.34-2.41c0.87-0.47,4.45-0.7,4.45-0.7
			S22.63,214.78,17.92,215.22z M45.68,207.36c6.98-3.49,12-7.85,27.59-7.85s20.96,4.67,20.96,4.67
			C93.74,207.74,45.68,207.36,45.68,207.36z"/>
		<linearGradient id="SVGID_8_" gradientUnits="userSpaceOnUse" x1="64.6673" y1="216.4805" x2="64.6673" y2="205.9544">
			<stop  offset="0" style="stop-color:#0D97D3"/>
			<stop  offset="1" style="stop-color:#000000"/>
		</linearGradient>
		<path class="st19" d="M76.25,208.09c0,0-36.92,1.24-42.84,2.02c-5.92,0.78-7.86,1.99-7.86,1.99c-4.23,3.7-8.64,3.55-8.64,3.55
			c-0.12,0.4-0.11,0.41-0.21,0.82l10.65-0.46c1.42-2.16,3.87-3.59,6.65-3.59c2.54,0,4.8,1.19,6.26,3.04l43.75-1.87
			c10.84-4.56,14.98-0.79,20.73,0c5.75,0.79,7.45-2.89,7.45-2.89c0.74-1,0.33-2.55,0.33-2.55v-2.21L76.25,208.09z M66.02,211.37
			h-1.2c-0.53,0-0.95-0.43-0.95-0.95c0-0.53,0.43-0.95,0.95-0.95h1.2c0.53,0,0.95,0.43,0.95,0.95
			C66.98,210.94,66.55,211.37,66.02,211.37z M85.45,210.71h-1.2c-0.53,0-0.95-0.43-0.95-0.95c0-0.53,0.43-0.95,0.95-0.95h1.2
			c0.53,0,0.95,0.43,0.95,0.95C86.41,210.28,85.98,210.71,85.45,210.71z"/>
		<path class="st0" d="M112.19,210.71c0.74-1,0.33-2.55,0.33-2.55v-0.07c-0.3,0-0.32,0-2.38,0c-2.43,0-1.77,0.94-1.77,0.94
			s0.78,1.82,1.65,1.82h2.08C112.17,210.76,112.19,210.71,112.19,210.71z"/>
		<path class="st9" d="M110.21,209.21L110.21,209.21c0,0.24,0.19,0.43,0.43,0.43h1.96c0.04-0.31,0.04-0.61,0.02-0.86h-1.98
			C110.41,208.78,110.21,208.97,110.21,209.21z"/>
		<path class="st18" d="M34.97,220.39c0,0.54-0.43,0.97-0.97,0.97c-0.54,0-0.97-0.43-0.97-0.97c0-0.54,0.43-0.97,0.97-0.97
			C34.54,219.42,34.97,219.86,34.97,220.39z"/>
		<path class="st20" d="M34.53,220.39c0,0.29-0.24,0.53-0.53,0.53s-0.53-0.24-0.53-0.53c0-0.29,0.24-0.53,0.53-0.53
			S34.53,220.1,34.53,220.39z"/>
		<g>
			<path class="st20" d="M33.41,218.65v-1.36c-0.82,0.16-1.53,0.63-1.99,1.28l1.24,0.55C32.87,218.91,33.12,218.74,33.41,218.65z"/>
			<path class="st20" d="M32.16,220.39c0-0.06,0-0.13,0.01-0.19l-1.24-0.55c-0.06,0.24-0.09,0.48-0.09,0.74
				c0,0.66,0.2,1.27,0.55,1.78l0.96-0.96C32.23,220.97,32.16,220.69,32.16,220.39z"/>
			<path class="st20" d="M35.85,220.39c0,0.29-0.07,0.56-0.19,0.81l0.96,0.96c0.34-0.51,0.54-1.11,0.54-1.77
				c0-0.25-0.03-0.5-0.09-0.74l-1.24,0.55C35.84,220.26,35.85,220.33,35.85,220.39z"/>
			<path class="st20" d="M35.34,219.12l1.25-0.55c-0.46-0.66-1.17-1.13-1.99-1.28v1.36C34.88,218.74,35.14,218.91,35.34,219.12z"/>
			<path class="st20" d="M34,222.24c-0.29,0-0.56-0.07-0.81-0.19l-0.96,0.96c0.51,0.34,1.11,0.54,1.77,0.54
				c0.66,0,1.27-0.2,1.78-0.55l-0.96-0.96C34.58,222.17,34.3,222.24,34,222.24z"/>
		</g>
		<path class="st18" d="M93.91,220.39c0,0.54-0.43,0.97-0.97,0.97s-0.97-0.43-0.97-0.97c0-0.54,0.43-0.97,0.97-0.97
			S93.91,219.86,93.91,220.39z"/>
		<linearGradient id="SVGID_9_" gradientUnits="userSpaceOnUse" x1="64.0359" y1="223.3271" x2="64.0359" y2="215.6477">
			<stop  offset="0" style="stop-color:#FFFFFF"/>
			<stop  offset="0.1102" style="stop-color:#DCE7EF"/>
			<stop  offset="0.3557" style="stop-color:#94B6CE"/>
			<stop  offset="0.5763" style="stop-color:#5B8EB4"/>
			<stop  offset="0.7639" style="stop-color:#3272A1"/>
			<stop  offset="0.9112" style="stop-color:#186095"/>
			<stop  offset="1" style="stop-color:#0F5A91"/>
		</linearGradient>
		<path class="st21" d="M86.67,215.65c-4.9,4.9-9,4.66-9,4.66l-35.71,0.08c0,1.04-0.2,2.03-0.56,2.94l43.99-0.82
			c-0.19-0.67-0.29-1.38-0.29-2.12C85.1,218.61,85.69,216.97,86.67,215.65L86.67,215.65z"/>
		<linearGradient id="SVGID_10_" gradientUnits="userSpaceOnUse" x1="107.9039" y1="222.2199" x2="107.9039" y2="214.7502">
			<stop  offset="0" style="stop-color:#FFFFFF"/>
			<stop  offset="0.1102" style="stop-color:#DCE7EF"/>
			<stop  offset="0.3557" style="stop-color:#94B6CE"/>
			<stop  offset="0.5763" style="stop-color:#5B8EB4"/>
			<stop  offset="0.7639" style="stop-color:#3272A1"/>
			<stop  offset="0.9112" style="stop-color:#186095"/>
			<stop  offset="1" style="stop-color:#0F5A91"/>
		</linearGradient>
		<path class="st22" d="M115,215.32c0-1.94-2.45,1.62-4.85,2.71c-3.03,1.31-8.73,1.84-8.73,1.84c0.02,1.09-0.24,1.99-0.61,2.35
			l0.68-0.01c0,0,4.75-0.4,9.16-1.4C115.07,219.8,115,217.26,115,215.32z"/>
		<linearGradient id="SVGID_11_" gradientUnits="userSpaceOnUse" x1="21.4318" y1="223.612" x2="21.4318" y2="219.627">
			<stop  offset="0" style="stop-color:#FFFFFF"/>
			<stop  offset="0.1102" style="stop-color:#DCE7EF"/>
			<stop  offset="0.3557" style="stop-color:#94B6CE"/>
			<stop  offset="0.5763" style="stop-color:#5B8EB4"/>
			<stop  offset="0.7639" style="stop-color:#3272A1"/>
			<stop  offset="0.9112" style="stop-color:#186095"/>
			<stop  offset="1" style="stop-color:#0F5A91"/>
		</linearGradient>
		<path class="st23" d="M26.11,223.61l0.61-0.01c-0.31-0.7-0.52-1.45-0.61-2.24c0,0,0,0,0,0c-10.07,1.84-9.74-0.47-9.91-1.73
			c-0.04,0.43-0.05,0.83-0.05,1.18c0,2.74,4.01,2.81,4.01,2.81H26.11z"/>
		<linearGradient id="SVGID_12_" gradientUnits="userSpaceOnUse" x1="65.4779" y1="217.4081" x2="65.4779" y2="214.7137">
			<stop  offset="0" style="stop-color:#0D97D3"/>
			<stop  offset="1" style="stop-color:#000000"/>
		</linearGradient>
		<polygon class="st24" points="80.42,216.81 47.7,217.41 83.26,214.71 		"/>
		<polygon class="st25" points="69.41,207.68 67.54,207.68 69.66,198.59 70.84,198.59 		"/>
		<polygon class="st25" points="90.09,206.69 88.76,206.69 90.27,201.65 91.11,201.65 		"/>
		<linearGradient id="SVGID_13_" gradientUnits="userSpaceOnUse" x1="65.422" y1="210.7082" x2="65.422" y2="210.118">
			<stop  offset="0" style="stop-color:#0D97D3"/>
			<stop  offset="1" style="stop-color:#000000"/>
		</linearGradient>
		<path class="st26" d="M67.83,210.41c0,0.16-0.13,0.29-0.29,0.29h-4.23c-0.16,0-0.29-0.13-0.29-0.29l0,0c0-0.16,0.13-0.3,0.29-0.3
			h4.23C67.7,210.12,67.83,210.25,67.83,210.41L67.83,210.41z"/>
		<linearGradient id="SVGID_14_" gradientUnits="userSpaceOnUse" x1="84.8517" y1="210.0502" x2="84.8517" y2="209.4599">
			<stop  offset="0" style="stop-color:#0D97D3"/>
			<stop  offset="1" style="stop-color:#000000"/>
		</linearGradient>
		<path class="st27" d="M87.26,209.75c0,0.16-0.13,0.3-0.29,0.3h-4.23c-0.16,0-0.29-0.13-0.29-0.3l0,0c0-0.16,0.13-0.29,0.29-0.29
			h4.23C87.13,209.46,87.26,209.59,87.26,209.75L87.26,209.75z"/>
		<path class="st20" d="M93.46,220.39c0,0.29-0.24,0.53-0.53,0.53c-0.29,0-0.53-0.24-0.53-0.53c0-0.29,0.24-0.53,0.53-0.53
			C93.23,219.86,93.46,220.1,93.46,220.39z"/>
		<g>
			<path class="st20" d="M92.34,218.65v-1.36c-0.82,0.16-1.53,0.63-1.99,1.28l1.24,0.55C91.8,218.91,92.06,218.74,92.34,218.65z"/>
			<path class="st20" d="M91.09,220.39c0-0.06,0-0.13,0.01-0.19l-1.24-0.55c-0.06,0.24-0.09,0.48-0.09,0.74
				c0,0.66,0.2,1.27,0.55,1.78l0.96-0.96C91.16,220.97,91.09,220.69,91.09,220.39z"/>
			<path class="st20" d="M94.78,220.39c0,0.29-0.07,0.56-0.19,0.81l0.96,0.96c0.34-0.51,0.54-1.11,0.54-1.77
				c0-0.25-0.03-0.5-0.09-0.74l-1.24,0.55C94.78,220.26,94.78,220.33,94.78,220.39z"/>
			<path class="st20" d="M94.27,219.12l1.25-0.55c-0.46-0.66-1.17-1.13-1.99-1.28v1.36C93.82,218.74,94.07,218.91,94.27,219.12z"/>
			<path class="st20" d="M92.94,222.24c-0.29,0-0.56-0.07-0.81-0.19l-0.96,0.96c0.51,0.34,1.11,0.54,1.77,0.54
				c0.66,0,1.27-0.2,1.78-0.55l-0.96-0.96C93.51,222.17,93.23,222.24,92.94,222.24z"/>
		</g>
	</g>
</g>
<g>
	<path class="st17" d="M374.42,223.6l-14.68-0.27l-24.17-1.97l-19.82,1.15l-15.42-0.29c0,0-3.37-7.96-1.4-9.14
		s11.33-2.68,14.95-1.86c3.62,0.82,43.62-0.41,50.6,0c6.98,0.41,12.68,3.74,13.35,6.07C378.51,219.63,374.42,223.6,374.42,223.6z"/>
	<g>
		<path class="st0" d="M308.21,213.6c3.75,0,6.79,3.04,6.79,6.79c0,3.75-3.04,6.79-6.79,6.79c-3.75,0-6.79-3.04-6.79-6.79
			C301.42,216.64,304.46,213.6,308.21,213.6z"/>
		
			<ellipse transform="matrix(0.0249 -0.9997 0.9997 0.0249 137.6575 581.9188)" class="st0" cx="367.14" cy="220.39" rx="6.79" ry="6.79"/>
		<path class="st17" d="M367.14,215.02c2.97,0,5.37,2.41,5.37,5.37c0,2.97-2.4,5.37-5.37,5.37c-2.97,0-5.37-2.4-5.37-5.37
			C361.77,217.43,364.17,215.02,367.14,215.02z"/>
		<path class="st0" d="M376.16,211.65c0,0,0.56,8.48,2.28,10.09c1.72,1.61,6.01-0.37,6.01-0.37s0.31-7.38-3.02-9.25
			C378.1,210.23,376.16,211.65,376.16,211.65z"/>
		<path class="st17" d="M308.2,215.02c2.97,0,5.37,2.41,5.37,5.37c0,2.97-2.4,5.37-5.37,5.37c-2.97,0-5.37-2.4-5.37-5.37
			C302.83,217.43,305.23,215.02,308.2,215.02z"/>
		<path class="st2" d="M375.39,211.67c0,0,3.53,0.32,4.33,1.15c0.8,0.83,0.8,1.89,0.8,1.89l-2.96,0.12
			C377.56,214.82,374.79,213.23,375.39,211.67z"/>
		<path class="st6" d="M353.79,212.75h-38.79l-11.17-9.1c0,0,5.93-3.95,12.46-4.08c6.53-0.13,22.18,0,22.18,0s11.04,2.1,17.2,7.11
			c6.15,5.02,4.07,6.06,4.07,6.06H353.79z"/>
		<g>
			<polygon class="st7" points="342.9,212.43 344.59,212.43 337.81,199.22 336.12,199.22 			"/>
			<polygon class="st7" points="345.86,212.43 346.71,212.43 339.72,198.98 338.88,198.98 			"/>
			<polygon class="st7" points="327.69,212.43 329.37,212.43 322.59,199.31 320.91,199.31 			"/>
			<polygon class="st7" points="302.83,212.43 326.07,212.43 318.97,198.7 308.8,200.6 			"/>
			<polygon class="st7" points="330.65,212.43 331.49,212.43 324.41,198.7 323.57,198.7 			"/>
		</g>
		<g>
			<path class="st18" d="M367.73,215.65v3c0.29,0.1,0.54,0.26,0.74,0.48l2.75-1.22C370.48,216.69,369.21,215.83,367.73,215.65z"/>
			<path class="st18" d="M368.79,221.21l2.12,2.12c0.63-0.81,1.01-1.83,1.01-2.94c0-0.49-0.07-0.96-0.21-1.4l-2.74,1.21
				c0.01,0.06,0.01,0.13,0.01,0.19C368.98,220.69,368.91,220.97,368.79,221.21z"/>
			<path class="st18" d="M362.36,220.39c0,1.1,0.38,2.12,1,2.93l2.12-2.12c-0.12-0.24-0.19-0.52-0.19-0.81c0-0.06,0-0.13,0.01-0.19
				l-2.74-1.21C362.43,219.43,362.36,219.9,362.36,220.39z"/>
			<path class="st18" d="M363.05,217.91l2.75,1.22c0.2-0.21,0.46-0.38,0.74-0.48v-3C365.07,215.83,363.8,216.69,363.05,217.91z"/>
			<path class="st18" d="M364.2,224.16c0.81,0.63,1.83,1.01,2.94,1.01c1.11,0,2.12-0.37,2.93-1.01l-2.12-2.12
				c-0.24,0.12-0.52,0.19-0.81,0.19c-0.29,0-0.57-0.07-0.82-0.19L364.2,224.16z"/>
		</g>
		<path class="st18" d="M308.8,215.65v3c0.29,0.1,0.54,0.26,0.74,0.48l2.75-1.22C311.55,216.69,310.28,215.83,308.8,215.65z"/>
		<path class="st18" d="M309.86,221.21l2.12,2.12c0.63-0.81,1.01-1.83,1.01-2.94c0-0.49-0.07-0.96-0.21-1.4l-2.74,1.21
			c0.01,0.06,0.01,0.13,0.01,0.19C310.05,220.69,309.98,220.97,309.86,221.21z"/>
		<path class="st18" d="M304.12,217.91l2.75,1.22c0.2-0.21,0.46-0.38,0.74-0.48v-3C306.13,215.83,304.86,216.69,304.12,217.91z"/>
		<path class="st18" d="M305.26,224.16c0.81,0.63,1.83,1.01,2.94,1.01c1.11,0,2.12-0.37,2.93-1.01l-2.12-2.12
			c-0.24,0.12-0.52,0.19-0.81,0.19c-0.29,0-0.57-0.07-0.82-0.19L305.26,224.16z"/>
		<path class="st18" d="M303.42,220.39c0,1.1,0.38,2.12,1,2.93l2.12-2.12c-0.12-0.24-0.19-0.52-0.19-0.81c0-0.06,0-0.13,0.01-0.19
			l-2.74-1.21C303.5,219.43,303.42,219.9,303.42,220.39z"/>
		<path class="st1" d="M379.61,219.4c0,0.6,0.48,1.08,1.08,1.08s1.08-0.48,1.08-1.08c0-0.6-0.48-1.08-1.08-1.08
			S379.61,218.8,379.61,219.4z"/>
		<path class="st3" d="M290.49,220.8c4.41,1,9.16,1.4,9.16,1.4l0.68,0.01c-0.14-0.59-0.21-1.2-0.21-1.83c0-4.4,3.56-7.96,7.96-7.96
			s7.96,3.56,7.96,7.96c0,0.73-0.1,1.44-0.29,2.12l43.99,0.82c-0.36-0.91-0.56-1.9-0.56-2.94c0-4.4,3.56-7.96,7.96-7.96
			c4.4,0,7.96,3.56,7.96,7.96c0,1.14-0.24,2.23-0.68,3.21l0.61,0.01h5.95c0,0,4.01-0.07,4.01-2.81c0-1.11,0.07-4.16-0.56-4.32
			c-0.1-0.41-0.21-0.82-0.33-1.22c-0.18-2.02-1.51-3.73-2.79-4.49c-2.61-1.54-21.27-4.15-21.27-4.15s-1.34-0.13-4.68-1.4
			c-3.34-1.27-11.1-6.33-17.59-7.02c-6.49-0.69-22.67-0.87-32.84,2.94c-10.17,3.81-16.32,4.82-16.32,4.82v2.21
			c0,0-0.4,1.55,0.33,2.55c0,0-0.07,2.6-1.47,2.6c0,0-1.34,0.07-1.34,2.01S286.08,219.8,290.49,220.8z M378.81,218.27l5.44,0.5
			c0,0,0,1.08-0.15,1.62c-0.15,0.54-0.35,0.86-0.9,0.99c-0.55,0.13-2.81,0-2.81,0s-0.88-0.18-1.13-0.88
			C379.01,219.8,378.81,218.27,378.81,218.27z M377.44,212.11c0,0,3.58,0.23,4.45,0.7c0.87,0.47,1.34,2.41,1.34,2.41
			C378.51,214.78,377.44,212.11,377.44,212.11z M306.91,204.18c0,0,5.37-4.67,20.96-4.67s20.61,4.36,27.59,7.85
			C355.46,207.36,307.4,207.74,306.91,204.18z"/>
		
			<linearGradient id="SVGID_15_" gradientUnits="userSpaceOnUse" x1="334.6673" y1="216.4805" x2="334.6673" y2="205.9544" gradientTransform="matrix(-1 0 0 1 671.142 0)">
			<stop  offset="0" style="stop-color:#0D97D3"/>
			<stop  offset="1" style="stop-color:#000000"/>
		</linearGradient>
		<path class="st28" d="M288.62,205.95v2.21c0,0-0.4,1.55,0.33,2.55c0,0,1.7,3.68,7.45,2.89c5.75-0.79,9.9-4.56,20.73,0l43.75,1.87
			c1.46-1.85,3.72-3.04,6.26-3.04c2.78,0,5.23,1.43,6.65,3.59l10.65,0.46c-0.1-0.41-0.08-0.41-0.21-0.82c0,0-4.41,0.15-8.64-3.55
			c0,0-1.94-1.21-7.86-1.99c-5.92-0.78-42.84-2.02-42.84-2.02L288.62,205.95z M334.16,210.41c0-0.53,0.43-0.95,0.95-0.95h1.2
			c0.53,0,0.95,0.43,0.95,0.95c0,0.53-0.43,0.95-0.95,0.95h-1.2C334.59,211.37,334.16,210.94,334.16,210.41z M314.74,209.75
			c0-0.53,0.43-0.95,0.95-0.95h1.2c0.53,0,0.95,0.43,0.95,0.95c0,0.53-0.43,0.95-0.95,0.95h-1.2
			C315.16,210.71,314.74,210.28,314.74,209.75z"/>
		<path class="st0" d="M288.95,210.71c-0.74-1-0.33-2.55-0.33-2.55v-0.07c0.3,0,0.32,0,2.38,0c2.43,0,1.77,0.94,1.77,0.94
			s-0.78,1.82-1.65,1.82h-2.08C288.98,210.76,288.95,210.71,288.95,210.71z"/>
		<path class="st9" d="M290.93,209.21L290.93,209.21c0,0.24-0.19,0.43-0.43,0.43h-1.96c-0.04-0.31-0.04-0.61-0.02-0.86h1.98
			C290.74,208.78,290.93,208.97,290.93,209.21z"/>
		<path class="st18" d="M366.17,220.39c0,0.54,0.43,0.97,0.97,0.97c0.54,0,0.97-0.43,0.97-0.97c0-0.54-0.43-0.97-0.97-0.97
			C366.6,219.42,366.17,219.86,366.17,220.39z"/>
		<path class="st20" d="M366.61,220.39c0,0.29,0.24,0.53,0.53,0.53s0.53-0.24,0.53-0.53c0-0.29-0.24-0.53-0.53-0.53
			S366.61,220.1,366.61,220.39z"/>
		<g>
			<path class="st20" d="M367.73,218.65v-1.36c0.82,0.16,1.53,0.63,1.99,1.28l-1.24,0.55C368.27,218.91,368.02,218.74,367.73,218.65
				z"/>
			<path class="st20" d="M368.98,220.39c0-0.06,0-0.13-0.01-0.19l1.24-0.55c0.06,0.24,0.09,0.48,0.09,0.74
				c0,0.66-0.2,1.27-0.55,1.78l-0.96-0.96C368.91,220.97,368.98,220.69,368.98,220.39z"/>
			<path class="st20" d="M365.29,220.39c0,0.29,0.07,0.56,0.19,0.81l-0.96,0.96c-0.34-0.51-0.54-1.11-0.54-1.77
				c0-0.25,0.03-0.5,0.09-0.74l1.24,0.55C365.3,220.26,365.29,220.33,365.29,220.39z"/>
			<path class="st20" d="M365.8,219.12l-1.25-0.55c0.46-0.66,1.17-1.13,1.99-1.28v1.36C366.26,218.74,366,218.91,365.8,219.12z"/>
			<path class="st20" d="M367.14,222.24c0.29,0,0.56-0.07,0.81-0.19l0.96,0.96c-0.51,0.34-1.11,0.54-1.77,0.54
				c-0.66,0-1.27-0.2-1.78-0.55l0.96-0.96C366.57,222.17,366.84,222.24,367.14,222.24z"/>
		</g>
		<path class="st18" d="M307.23,220.39c0,0.54,0.43,0.97,0.97,0.97c0.54,0,0.97-0.43,0.97-0.97c0-0.54-0.43-0.97-0.97-0.97
			C307.66,219.42,307.23,219.86,307.23,220.39z"/>
		
			<linearGradient id="SVGID_16_" gradientUnits="userSpaceOnUse" x1="334.0359" y1="223.3271" x2="334.0359" y2="215.6477" gradientTransform="matrix(-1 0 0 1 671.142 0)">
			<stop  offset="0" style="stop-color:#FFFFFF"/>
			<stop  offset="0.1102" style="stop-color:#DCE7EF"/>
			<stop  offset="0.3557" style="stop-color:#94B6CE"/>
			<stop  offset="0.5763" style="stop-color:#5B8EB4"/>
			<stop  offset="0.7639" style="stop-color:#3272A1"/>
			<stop  offset="0.9112" style="stop-color:#186095"/>
			<stop  offset="1" style="stop-color:#0F5A91"/>
		</linearGradient>
		<path class="st29" d="M314.47,215.65c4.9,4.9,9,4.66,9,4.66l35.71,0.08c0,1.04,0.2,2.03,0.56,2.94l-43.99-0.82
			c0.19-0.67,0.29-1.38,0.29-2.12C316.04,218.61,315.46,216.97,314.47,215.65L314.47,215.65z"/>
		
			<linearGradient id="SVGID_17_" gradientUnits="userSpaceOnUse" x1="377.9039" y1="222.2199" x2="377.9039" y2="214.7502" gradientTransform="matrix(-1 0 0 1 671.142 0)">
			<stop  offset="0" style="stop-color:#FFFFFF"/>
			<stop  offset="0.1102" style="stop-color:#DCE7EF"/>
			<stop  offset="0.3557" style="stop-color:#94B6CE"/>
			<stop  offset="0.5763" style="stop-color:#5B8EB4"/>
			<stop  offset="0.7639" style="stop-color:#3272A1"/>
			<stop  offset="0.9112" style="stop-color:#186095"/>
			<stop  offset="1" style="stop-color:#0F5A91"/>
		</linearGradient>
		<path class="st30" d="M286.14,215.32c0-1.94,2.45,1.62,4.85,2.71c3.03,1.31,8.73,1.84,8.73,1.84c-0.02,1.09,0.24,1.99,0.61,2.35
			l-0.68-0.01c0,0-4.75-0.4-9.16-1.4C286.08,219.8,286.14,217.26,286.14,215.32z"/>
		
			<linearGradient id="SVGID_18_" gradientUnits="userSpaceOnUse" x1="291.4318" y1="223.612" x2="291.4318" y2="219.627" gradientTransform="matrix(-1 0 0 1 671.142 0)">
			<stop  offset="0" style="stop-color:#FFFFFF"/>
			<stop  offset="0.1102" style="stop-color:#DCE7EF"/>
			<stop  offset="0.3557" style="stop-color:#94B6CE"/>
			<stop  offset="0.5763" style="stop-color:#5B8EB4"/>
			<stop  offset="0.7639" style="stop-color:#3272A1"/>
			<stop  offset="0.9112" style="stop-color:#186095"/>
			<stop  offset="1" style="stop-color:#0F5A91"/>
		</linearGradient>
		<path class="st31" d="M375.03,223.61l-0.61-0.01c0.31-0.7,0.52-1.45,0.61-2.24c0,0,0,0,0,0c10.07,1.84,9.74-0.47,9.91-1.73
			c0.04,0.43,0.05,0.83,0.05,1.18c0,2.74-4.01,2.81-4.01,2.81H375.03z"/>
		
			<linearGradient id="SVGID_19_" gradientUnits="userSpaceOnUse" x1="335.4779" y1="217.4081" x2="335.4779" y2="214.7137" gradientTransform="matrix(-1 0 0 1 671.142 0)">
			<stop  offset="0" style="stop-color:#0D97D3"/>
			<stop  offset="1" style="stop-color:#000000"/>
		</linearGradient>
		<polygon class="st32" points="320.72,216.81 353.44,217.41 317.88,214.71 		"/>
		<polygon class="st25" points="331.73,207.68 333.6,207.68 331.48,198.59 330.3,198.59 		"/>
		<polygon class="st25" points="311.05,206.69 312.38,206.69 310.87,201.65 310.04,201.65 		"/>
		
			<linearGradient id="SVGID_20_" gradientUnits="userSpaceOnUse" x1="335.4219" y1="210.7082" x2="335.4219" y2="210.118" gradientTransform="matrix(-1 0 0 1 671.142 0)">
			<stop  offset="0" style="stop-color:#0D97D3"/>
			<stop  offset="1" style="stop-color:#000000"/>
		</linearGradient>
		<path class="st33" d="M333.31,210.41c0,0.16,0.13,0.29,0.3,0.29h4.23c0.16,0,0.3-0.13,0.3-0.29l0,0c0-0.16-0.13-0.3-0.3-0.3h-4.23
			C333.44,210.12,333.31,210.25,333.31,210.41L333.31,210.41z"/>
		
			<linearGradient id="SVGID_21_" gradientUnits="userSpaceOnUse" x1="354.8517" y1="210.0502" x2="354.8517" y2="209.4599" gradientTransform="matrix(-1 0 0 1 671.142 0)">
			<stop  offset="0" style="stop-color:#0D97D3"/>
			<stop  offset="1" style="stop-color:#000000"/>
		</linearGradient>
		<path class="st34" d="M313.88,209.75c0,0.16,0.13,0.3,0.3,0.3h4.23c0.16,0,0.29-0.13,0.29-0.3l0,0c0-0.16-0.13-0.29-0.29-0.29
			h-4.23C314.01,209.46,313.88,209.59,313.88,209.75L313.88,209.75z"/>
		<path class="st20" d="M307.68,220.39c0,0.29,0.24,0.53,0.53,0.53s0.53-0.24,0.53-0.53c0-0.29-0.24-0.53-0.53-0.53
			S307.68,220.1,307.68,220.39z"/>
		<g>
			<path class="st20" d="M308.8,218.65v-1.36c0.82,0.16,1.53,0.63,1.99,1.28l-1.24,0.55C309.34,218.91,309.09,218.74,308.8,218.65z"
				/>
			<path class="st20" d="M310.05,220.39c0-0.06,0-0.13-0.01-0.19l1.24-0.55c0.06,0.24,0.09,0.48,0.09,0.74
				c0,0.66-0.2,1.27-0.55,1.78l-0.96-0.96C309.98,220.97,310.05,220.69,310.05,220.39z"/>
			<path class="st20" d="M306.36,220.39c0,0.29,0.07,0.56,0.19,0.81l-0.96,0.96c-0.34-0.51-0.54-1.11-0.54-1.77
				c0-0.25,0.03-0.5,0.09-0.74l1.24,0.55C306.36,220.26,306.36,220.33,306.36,220.39z"/>
			<path class="st20" d="M306.87,219.12l-1.25-0.55c0.46-0.66,1.17-1.13,1.99-1.28v1.36C307.33,218.74,307.07,218.91,306.87,219.12z
				"/>
			<path class="st20" d="M308.2,222.24c0.29,0,0.56-0.07,0.81-0.19l0.96,0.96c-0.51,0.34-1.11,0.54-1.77,0.54
				c-0.66,0-1.27-0.2-1.78-0.55l0.96-0.96C307.63,222.17,307.91,222.24,308.2,222.24z"/>
		</g>
	</g>
</g>
<g>
	<g>
		<polygon class="st6" points="221.16,236.88 221.16,185.26 201.73,174.32 182.3,185.26 182.3,236.88 190.43,253.08 201.73,253.08 
			213.03,253.08 		"/>
		<polygon class="st7" points="212.4,202.54 203.54,173.51 205.46,173.51 214.32,202.54 		"/>
		<polygon class="st7" points="206.16,202.54 197.3,173.51 201.67,173.51 210.52,202.54 		"/>
		<polygon class="st7" points="188.73,202.54 182.3,179.31 194.08,173.51 202.94,202.54 		"/>
		<polygon class="st7" points="203.89,254.94 195.04,225.91 196.95,225.91 205.81,254.94 		"/>
		<polygon class="st7" points="197.65,254.94 188.79,225.91 193.16,225.91 202.02,254.94 		"/>
		<path class="st0" d="M211.68,154.45l-0.56-0.46h-18.27l0.45-2.55c0,0,11.04-2.09,17.43,0
			C210.73,151.43,211.85,152.83,211.68,154.45z"/>
		<path class="st9" d="M219.93,251.07c0,0,1.53,2.09-0.48,3.87c-2.01,1.79-6.7,3.87-6.7,3.87l-4.36-0.89L219.93,251.07z"/>
		<path class="st9" d="M183.51,251.02c0,0-1.53,2.09,0.48,3.87c2.01,1.79,6.7,3.87,6.7,3.87l4.36-0.89L183.51,251.02z"/>
		<g>
			<path class="st2" d="M211.85,153.74l8.9,7.61l0.41-2.12l-0.41-1.38c0,0-2.08-3.2-6.4-5.36c-4.32-2.16-3.07,0-3.07,0
				L211.85,153.74z"/>
			<path class="st0" d="M217.67,154.64c-0.9-0.73-2.01-1.49-3.33-2.14c-4.32-2.16-3.07,0-3.07,0l0.58,1.25l6.64,5.31
				C218.43,157.83,217.06,155.49,217.67,154.64z"/>
		</g>
		<g>
			<path class="st2" d="M191.67,153.74l-8.9,7.61l-0.41-2.12l0.41-1.38c0,0,2.08-3.2,6.4-5.36c4.32-2.16,3.07,0,3.07,0
				L191.67,153.74z"/>
			<path class="st0" d="M185.85,154.64c0.9-0.73,2.01-1.49,3.33-2.14c4.32-2.16,3.07,0,3.07,0l-0.58,1.25l-6.64,5.31
				C185.1,157.83,186.46,155.49,185.85,154.64z"/>
		</g>
		<path class="st3" d="M217.26,257.62c5.81-3.91,5.92-16.87,5.92-16.87V213.6c0,0,0-36.87,0-44.13c0-7.26-1.79-13.18-7.04-16.31
			c-5.25-3.13-14.41-2.9-14.41-2.9s-9.16-0.22-14.41,2.9c-5.25,3.13-7.04,9.05-7.04,16.31c0,7.26,0,44.13,0,44.13v27.15
			c0,0,0.11,12.96,5.92,16.87c5.81,3.91,15.53,3.35,15.53,3.35S211.45,261.53,217.26,257.62z M193.99,151.34
			c2.29-0.25,4.39-0.52,5.92-0.57c0.02-0.01,0.03-0.02,0.03-0.02s0.64-0.03,1.79-0.02c1.15-0.01,1.79,0.02,1.79,0.02
			s0.01,0.01,0.03,0.02c1.53,0.06,3.63,0.32,5.92,0.57c0,0,1.4,1.27,0.6,1.54c-0.66,0.22-5.01,0.09-8.34,0.01
			c-3.33,0.08-7.68,0.21-8.34-0.01C192.6,152.62,193.99,151.34,193.99,151.34z M182.73,159.16c0,0,0.41-2.79,5.81-5.62
			c5.4-2.83,2.09,0,2.09,0s-4.21,1.86-7.67,6.7L182.73,159.16z M212.84,153.53c0,0-3.31-2.83,2.09,0c5.4,2.83,5.81,5.62,5.81,5.62
			l-0.22,1.08C217.05,155.39,212.84,153.53,212.84,153.53z M219.61,217.01c0,15.08-1.9,20.45-1.9,20.45
			c-1.45-8.27-1.84-30.95-0.95-37.2c0.89-6.26,2.85-13.46,2.85-13.46S219.61,201.93,219.61,217.01z M190.45,183.06
			c3.8-1.56,11.28-1.64,11.28-1.64s7.49,0.07,11.28,1.64c3.8,1.56,4.32,1.64,4.32,4.02c0,2.38-1.04,6.78-1.04,6.78
			s-0.15,4.1-3.87,3.57c-3.72-0.52-8.58-0.76-10.56-0.76c-1.97,0-7.1,0.24-10.82,0.76c-3.72,0.52-3.87-3.57-3.87-3.57
			s-1.04-4.39-1.04-6.78C186.13,184.7,186.65,184.63,190.45,183.06z M183.85,217.01c0-15.08,0-30.22,0-30.22s1.96,7.21,2.85,13.46
			c0.89,6.26,0.5,28.94-0.95,37.2C185.75,237.45,183.85,232.09,183.85,217.01z M189.62,247.18c0,0-0.23,0.62,0-5.06
			c0.23-5.68,2.18-6.07,3.66-5.84c1.48,0.23,8.45,0.42,8.45,0.42s6.97-0.18,8.45-0.42c1.48-0.23,3.43,0.16,3.66,5.84
			c0.23,5.68,0,5.06,0,5.06s0.86,4.67-12.11,4.67C188.76,251.85,189.62,247.18,189.62,247.18z M190.87,257.75
			c-1.2-0.19-2.65-0.63-4.14-1.54c-3.75-2.29-2.94-3.52-2.94-3.52l0.11-0.17c0.16-0.24,0.51-0.23,0.66,0.02
			c0.45,0.76,1.56,2.12,4.07,3.22c0.96,0.42,1.79,0.76,2.48,1.03C191.65,257.01,191.44,257.84,190.87,257.75z M212.35,256.8
			c0.69-0.27,1.52-0.61,2.48-1.03c2.51-1.1,3.62-2.46,4.07-3.22c0.15-0.25,0.5-0.26,0.66-0.02l0.11,0.17c0,0,0.82,1.23-2.94,3.52
			c-1.49,0.91-2.94,1.34-4.14,1.54C212.02,257.84,211.81,257.01,212.35,256.8z"/>
		
			<radialGradient id="SVGID_22_" cx="189.7449" cy="191.6404" r="89.3858" gradientTransform="matrix(6.123234e-17 1 -0.6762 4.140610e-17 331.3197 15.8804)" gradientUnits="userSpaceOnUse">
			<stop  offset="0" style="stop-color:#FFFFFF"/>
			<stop  offset="0.1996" style="stop-color:#FCFDFE"/>
			<stop  offset="0.3365" style="stop-color:#F3F7FA"/>
			<stop  offset="0.4547" style="stop-color:#E4ECF3"/>
			<stop  offset="0.5623" style="stop-color:#CEDDE9"/>
			<stop  offset="0.6626" style="stop-color:#B2CADC"/>
			<stop  offset="0.7577" style="stop-color:#90B2CC"/>
			<stop  offset="0.8486" style="stop-color:#6796B9"/>
			<stop  offset="0.9338" style="stop-color:#3876A4"/>
			<stop  offset="1" style="stop-color:#0F5A91"/>
		</radialGradient>
		<path class="st35" d="M217.26,257.62c5.81-3.91,5.92-16.87,5.92-16.87V213.6c0,0,0-36.87,0-44.13c0-7.26-1.79-13.18-7.04-16.31
			c-5.25-3.13-14.41-2.9-14.41-2.9s-9.16-0.22-14.41,2.9c-5.25,3.13-7.04,9.05-7.04,16.31c0,7.26,0,44.13,0,44.13v27.15
			c0,0,0.11,12.96,5.92,16.87c5.81,3.91,15.53,3.35,15.53,3.35S211.45,261.53,217.26,257.62z M201.64,259.43
			c-0.09,0.01-9.28,0.48-14.58-3.09c-4.2-2.83-5.2-12.21-5.24-15.59v-71.27c0-7.56,2.06-12.46,6.28-14.98
			c4.81-2.87,13.5-2.69,13.58-2.69h0.08c0.09,0,8.78-0.17,13.58,2.69c4.23,2.52,6.28,7.42,6.28,14.98v71.28
			c-0.03,3.37-1.04,12.76-5.24,15.59c-5.3,3.57-14.49,3.1-14.58,3.09l-0.09,0L201.64,259.43z"/>
		<path class="st25" d="M183.85,188.84l-3.57,0.97c0,0-2.57,0.78-2.23,2.79l4.84-1.15c0,0,0.69-0.97,0.96-1.01V188.84z"/>
		<g>
			
				<linearGradient id="SVGID_23_" gradientUnits="userSpaceOnUse" x1="152.3694" y1="180.5329" x2="152.3694" y2="172.6261" gradientTransform="matrix(6.123234e-17 1 -1 6.123234e-17 393.3703 15.8804)">
				<stop  offset="0" style="stop-color:#0D97D3"/>
				<stop  offset="1" style="stop-color:#000000"/>
			</linearGradient>
			<path class="st36" d="M219.15,158.52c-3.11-3.57-6.31-4.98-6.31-4.98l6.1,29.42C218.94,182.96,222.86,178.18,219.15,158.52z"/>
			
				<linearGradient id="SVGID_24_" gradientUnits="userSpaceOnUse" x1="135.6942" y1="177.5264" x2="133.9785" y2="177.5264" gradientTransform="matrix(6.123234e-17 1 -1 6.123234e-17 393.3703 15.8804)">
				<stop  offset="0" style="stop-color:#FFFFFF"/>
				<stop  offset="0.1102" style="stop-color:#DCE7EF"/>
				<stop  offset="0.3557" style="stop-color:#94B6CE"/>
				<stop  offset="0.5763" style="stop-color:#5B8EB4"/>
				<stop  offset="0.7639" style="stop-color:#3272A1"/>
				<stop  offset="0.9112" style="stop-color:#186095"/>
				<stop  offset="1" style="stop-color:#0F5A91"/>
			</linearGradient>
			<path class="st37" d="M213.03,152.62c0.46,0.2,1.08,0.5,1.89,0.92c1.68,0.88,2.88,1.76,3.73,2.55c-0.09-0.44-0.19-0.85-0.28-1.24
				c-0.66-0.63-1.4-1.19-2.23-1.68c-0.88-0.53-1.88-0.96-2.92-1.31C213.15,152.13,213.08,152.39,213.03,152.62z"/>
		</g>
		<path class="st25" d="M219.64,188.84l3.57,0.97c0,0,2.57,0.78,2.23,2.79l-4.84-1.15c0,0-0.69-0.97-0.96-1.01V188.84z"/>
		<path class="st38" d="M183.85,188.84l-3.57,0.97c0,0-2.57,0.78-2.23,2.79l4.84-1.15c0,0,0.69-0.97,0.96-1.01V188.84z"/>
		<path class="st38" d="M219.64,188.84l3.57,0.97c0,0,2.57,0.78,2.23,2.79l-4.84-1.15c0,0-0.69-0.97-0.96-1.01V188.84z"/>
		<g>
			
				<linearGradient id="SVGID_25_" gradientUnits="userSpaceOnUse" x1="152.3616" y1="210.6545" x2="152.3616" y2="202.7481" gradientTransform="matrix(6.123234e-17 1 -1 6.123234e-17 393.3703 15.8804)">
				<stop  offset="0" style="stop-color:#0D97D3"/>
				<stop  offset="1" style="stop-color:#000000"/>
			</linearGradient>
			<path class="st39" d="M184.31,158.51c3.11-3.57,6.31-4.98,6.31-4.98l-6.1,29.42C184.52,182.95,180.6,178.17,184.31,158.51z"/>
			
				<linearGradient id="SVGID_26_" gradientUnits="userSpaceOnUse" x1="135.6942" y1="205.7546" x2="133.9784" y2="205.7546" gradientTransform="matrix(6.123234e-17 1 -1 6.123234e-17 393.3703 15.8804)">
				<stop  offset="0" style="stop-color:#FFFFFF"/>
				<stop  offset="0.1102" style="stop-color:#DCE7EF"/>
				<stop  offset="0.3557" style="stop-color:#94B6CE"/>
				<stop  offset="0.5763" style="stop-color:#5B8EB4"/>
				<stop  offset="0.7639" style="stop-color:#3272A1"/>
				<stop  offset="0.9112" style="stop-color:#186095"/>
				<stop  offset="1" style="stop-color:#0F5A91"/>
			</linearGradient>
			<path class="st40" d="M190.43,152.61c-0.46,0.2-1.08,0.5-1.89,0.92c-1.68,0.88-2.88,1.76-3.73,2.55
				c0.09-0.44,0.19-0.85,0.28-1.24c0.66-0.63,1.41-1.19,2.23-1.68c0.88-0.53,1.88-0.96,2.92-1.31
				C190.31,152.12,190.38,152.38,190.43,152.61z"/>
		</g>
		
			<linearGradient id="SVGID_27_" gradientUnits="userSpaceOnUse" x1="200.6296" y1="203.2525" x2="200.6296" y2="178.9356" gradientTransform="matrix(6.123234e-17 1 -1 6.123234e-17 393.3703 15.8804)">
			<stop  offset="0" style="stop-color:#0D97D3"/>
			<stop  offset="1" style="stop-color:#000000"/>
		</linearGradient>
		<path class="st41" d="M213.48,233.62c0,0,0.27-26.44,0.95-33.79c-2.27-1.04-12.16-1.08-12.16-1.08s-9.88,0.04-12.16,1.08
			c0.69,7.36,0.95,33.79,0.95,33.79s5.1,0.65,11.2,0.65C208.38,234.27,213.48,233.62,213.48,233.62z"/>
		<g>
			
				<linearGradient id="SVGID_28_" gradientUnits="userSpaceOnUse" x1="152.3616" y1="201.1475" x2="152.3616" y2="196.5338" gradientTransform="matrix(6.123234e-17 1 -1 6.123234e-17 393.3703 15.8804)">
				<stop  offset="0" style="stop-color:#0D97D3"/>
				<stop  offset="1" style="stop-color:#000000"/>
			</linearGradient>
			<polygon class="st42" points="196.84,156.04 192.22,180.44 193.09,180.44 			"/>
			
				<linearGradient id="SVGID_29_" gradientUnits="userSpaceOnUse" x1="152.3616" y1="186.7471" x2="152.3616" y2="182.1333" gradientTransform="matrix(6.123234e-17 1 -1 6.123234e-17 393.3703 15.8804)">
				<stop  offset="0" style="stop-color:#0D97D3"/>
				<stop  offset="1" style="stop-color:#000000"/>
			</linearGradient>
			<polygon class="st43" points="206.62,156.04 211.24,180.44 210.37,180.44 			"/>
		</g>
		
			<linearGradient id="SVGID_30_" gradientUnits="userSpaceOnUse" x1="236.9303" y1="207.2566" x2="236.9303" y2="176.0242" gradientTransform="matrix(6.123234e-17 1 -1 6.123234e-17 393.3703 15.8804)">
			<stop  offset="0" style="stop-color:#0D97D3"/>
			<stop  offset="1" style="stop-color:#000000"/>
		</linearGradient>
		<path class="st44" d="M216.96,252.77c0.53-0.47,0.51-1.31-0.05-1.76l-3.31-2.67c-0.67,1.38-3.13,3.51-11.87,3.51
			c-8.74,0-11.2-2.12-11.87-3.51l-3.31,2.67c-0.55,0.45-0.58,1.29-0.05,1.76c1.78,1.57,6.29,4.5,15.23,4.5
			C210.67,257.28,215.19,254.34,216.96,252.77z"/>
	</g>
	
		<linearGradient id="SVGID_31_" gradientUnits="userSpaceOnUse" x1="245.633" y1="191.6254" x2="241.3466" y2="191.6254" gradientTransform="matrix(6.123234e-17 1 -1 6.123234e-17 393.3703 15.8804)">
		<stop  offset="0" style="stop-color:#FFFFFF"/>
		<stop  offset="0.1102" style="stop-color:#DCE7EF"/>
		<stop  offset="0.3557" style="stop-color:#94B6CE"/>
		<stop  offset="0.5763" style="stop-color:#5B8EB4"/>
		<stop  offset="0.7639" style="stop-color:#3272A1"/>
		<stop  offset="0.9112" style="stop-color:#186095"/>
		<stop  offset="1" style="stop-color:#0F5A91"/>
	</linearGradient>
	<path class="st45" d="M206.43,259.02c-3.13,0.4-6.31,0.4-9.44,0c-1.25-0.15-2.81,0.31-3.65,1.21c-0.02,0.02-0.04,0.04-0.05,0.06
		c4.51,0.93,8.67,0.69,8.67,0.69s3.91,0.22,8.25-0.61c-0.04-0.05-0.09-0.09-0.13-0.14C209.23,259.33,207.68,258.87,206.43,259.02z"
		/>
</g>
<g>
	<g>
		<path class="st46" d="M141.8,212.81l-8.14-8.14c-0.27-0.26-0.7-0.25-0.96,0.02c-0.25,0.26-0.25,0.68,0,0.94l7.66,7.66l-7.66,7.66
			c-0.26,0.26-0.26,0.69,0,0.96c0.26,0.26,0.69,0.26,0.96,0l8.14-8.14C142.07,213.51,142.07,213.08,141.8,212.81z"/>
	</g>
</g>
<g>
	<g>
		<path class="st46" d="M259.7,213.77l8.14,8.14c0.26,0.26,0.69,0.26,0.96,0c0.26-0.26,0.26-0.69,0-0.96l-7.66-7.66l7.66-7.66
			c0.25-0.26,0.25-0.68,0-0.94c-0.26-0.27-0.69-0.28-0.96-0.02l-8.14,8.14C259.43,213.08,259.43,213.51,259.7,213.77z"/>
	</g>
</g>
<g>
	<g>
		<path class="st46" d="M200.77,270.74l-8.14,8.14c-0.26,0.27-0.25,0.7,0.02,0.96c0.26,0.25,0.68,0.25,0.94,0l7.66-7.66l7.66,7.66
			c0.26,0.26,0.69,0.26,0.96,0c0.26-0.27,0.26-0.69,0-0.96l-8.14-8.14C201.46,270.48,201.03,270.48,200.77,270.74z"/>
	</g>
</g>
<g>
	<g>
		<path class="st46" d="M201.73,141.85l8.14-8.14c0.26-0.26,0.26-0.69,0-0.96c-0.26-0.26-0.69-0.26-0.96,0l-7.66,7.66l-7.66-7.66
			c-0.26-0.25-0.68-0.25-0.94,0c-0.27,0.26-0.28,0.69-0.02,0.96l8.14,8.14C201.03,142.11,201.46,142.11,201.73,141.85z"/>
	</g>
</g>
</svg>
